#!OML:ASF F:\VICON\USERDATA\INSTALL\rory3\rory3.ASF
:FULLY-SPECIFIED
:DEGREES
1904
root 0.341534 17.3441 0.647453 1.84027 1.47503 -1.29805
lowerback -4.68387 -0.543822 -4.7566
upperback -4.89229 -0.590801 0.403621
thorax -2.37622 -0.145624 3.06785
lowerneck 2.58258 -16.3728 -23.825
upperneck 9.29346 -25.7711 25.2004
head 9.10198 -12.6968 9.2234
rclavicle 9.44227e-015 1.43125e-014
rhumerus -36.3159 34.8108 -104.39
rradius 80.6796
rwrist 21.5765
rhand 34.5342 9.15861
rfingers 7.12502
rthumb 57.7307 -6.80202
lclavicle 9.44227e-015 1.43125e-014
lhumerus -30.8448 -17.2442 97.1721
lradius 64.1644
lwrist -9.54983
lhand 34.4441 35.1085
lfingers 7.12502
lthumb 57.6519 51.1382
rfemur 9.2372 1.90822 19.6109
rtibia 1.27222e-014
rfoot -10.7113 -6.65933
rtoes -18.0751
lfemur 1.2881 -22.8501 -20.5834
ltibia 15.6635
lfoot -18.3299 18.1294
ltoes -12.0592
1905
root 0.338623 17.349 0.629137 1.73495 2.13091 -1.70288
lowerback -4.48087 -0.643383 -4.52921
upperback -4.72419 -0.732782 0.577568
thorax -2.30106 -0.225041 3.11716
lowerneck 2.55508 -16.3298 -23.9765
upperneck 9.09708 -25.6975 25.4213
head 9.08345 -12.6631 9.33543
rclavicle -7.55382e-015 -3.18055e-015
rhumerus -36.885 35.2296 -104.433
rradius 78.1652
rwrist 20.4395
rhand 33.7216 8.43838
rfingers 7.12502
rthumb 57.0181 -8.13252
lclavicle -7.55382e-015 -3.18055e-015
lhumerus -30.6954 -19.0132 98.2211
lradius 60.4767
lwrist -9.93272
lhand 34.0771 33.8929
lfingers 7.12502
lthumb 57.3304 50.2004
rfemur 9.36373 1.26342 20.0693
rtibia 4.77083e-015
rfoot -10.6894 -6.59394
rtoes -18.4455
lfemur 1.27065 -22.9848 -20.0014
ltibia 15.495
lfoot -17.9647 17.7003
ltoes -13.293
1906
root 0.332253 17.3579 0.605873 1.67164 2.76341 -2.21177
lowerback -4.29158 -0.753995 -4.25558
upperback -4.54007 -0.888771 0.792763
thorax -2.20082 -0.312804 3.18267
lowerneck 2.22043 -16.3193 -23.8983
upperneck 9.14694 -25.5995 25.3523
head 9.11053 -12.5874 9.29292
rclavicle -1.63003e-014 -1.27222e-014
rhumerus -37.3308 35.4737 -104.487
rradius 75.3884
rwrist 19.9007
rhand 32.6163 8.23305
rfingers 7.12502
rthumb 56.0425 -9.1237
lclavicle -1.63003e-014 -1.27222e-014
lhumerus -30.5327 -20.797 99.2634
lradius 56.7557
lwrist -10.4715
lhand 33.0982 32.3302
lfingers 7.12502
lthumb 56.4687 49.3504
rfemur 9.40699 0.642224 20.6486
rtibia 6.36111e-015
rfoot -10.7166 -6.48502
rtoes -18.7172
lfemur 1.03006 -22.9137 -19.2164
ltibia 15.5474
lfoot -17.6585 17.0796
ltoes -14.027
1907
root 0.33587 17.3609 0.5842 1.54201 3.62978 -2.23956
lowerback -3.97626 -0.9378 -4.25609
upperback -4.35849 -1.14414 0.809395
thorax -2.16601 -0.444178 3.19656
lowerneck 1.77472 -16.2995 -23.7203
upperneck 9.31291 -25.4645 25.1533
head 9.14934 -12.4837 9.19129
rclavicle 1.38155e-014 3.97569e-016
rhumerus -37.7939 35.7012 -104.645
rradius 72.8161
rwrist 19.9941
rhand 31.8847 7.89076
rfingers 7.12502
rthumb 55.3929 -9.95984
lclavicle 1.38155e-014 3.97569e-016
lhumerus -30.517 -22.4325 100.301
lradius 53.2026
lwrist -11.2575
lhand 32.4634 31.1595
lfingers 7.12502
lthumb 55.907 48.6212
rfemur 9.58419 -0.220267 20.6504
rtibia 2.38542e-014
rfoot -10.88 -6.36993
rtoes -18.3097
lfemur 0.7584 -23.1133 -19.0415
ltibia 15.7832
lfoot -17.4886 16.2637
ltoes -13.5881
1908
root 0.36119 17.3527 0.571224 1.06773 4.46307 -2.04052
lowerback -3.45026 -1.09955 -4.09368
upperback -4.07163 -1.38367 0.640999
thorax -2.14821 -0.576063 2.93216
lowerneck 1.87505 -16.2163 -23.7097
upperneck 8.87596 -25.3344 25.5131
head 9.01359 -12.4304 9.35402
rclavicle -1.64494e-014 -1.63003e-014
rhumerus -38.3091 35.9884 -104.995
rradius 70.3929
rwrist 20.3064
rhand 31.6419 7.48798
rfingers 7.12502
rthumb 55.1767 -10.5221
lclavicle -1.64494e-014 -1.63003e-014
lhumerus -30.6256 -24.1388 101.319
lradius 49.6091
lwrist -11.7984
lhand 31.9283 30.4915
lfingers 7.12502
lthumb 55.4317 48.3132
rfemur 10.1765 -1.04807 20.3052
rtibia -2.06736e-014
rfoot -11.0645 -6.33497
rtoes -18.0939
lfemur 1.01597 -23.6528 -19.4712
ltibia 15.9971
lfoot -17.51 15.8632
ltoes -13.0511
1909
root 0.368447 17.352 0.578693 1.18893 5.17803 -1.93503
lowerback -3.80404 -1.27898 -4.14117
upperback -3.90487 -1.60302 0.568782
thorax -1.76069 -0.696802 2.86936
lowerneck 2.93925 -15.9953 -24.0493
upperneck 7.39648 -25.1382 26.7368
head 8.54867 -12.4422 9.96786
rclavicle 4.32357e-015 9.14409e-015
rhumerus -38.8019 36.2249 -105.391
rradius 67.6562
rwrist 20.822
rhand 31.0334 8.03157
rfingers 7.12502
rthumb 54.6336 -10.3689
lclavicle 4.32357e-015 9.14409e-015
lhumerus -30.8378 -25.9517 102.452
lradius 45.8816
lwrist -11.9093
lhand 30.6691 29.9138
lfingers 7.12502
lthumb 54.3075 48.5418
rfemur 10.2124 -1.75843 20.1582
rtibia -2.70347e-014
rfoot -11.2773 -6.2759
rtoes -17.7105
lfemur 0.718944 -24.0392 -19.4627
ltibia 16.091
lfoot -17.4325 15.5695
ltoes -13.212
1910
root 0.394093 17.3612 0.576813 1.71076 6.5307 -2.00205
lowerback -4.37962 -1.667 -3.67372
upperback -3.87363 -2.10564 0.487555
thorax -1.38388 -0.967602 2.49185
lowerneck 2.79519 -15.9694 -24.1447
upperneck 7.32764 -25.0962 26.9589
head 8.59403 -12.411 10.0586
rclavicle -7.25564e-015 2.06736e-014
rhumerus -39.2523 36.7924 -105.916
rradius 64.8118
rwrist 21.2649
rhand 30.1454 8.37766
rfingers 7.12502
rthumb 53.8377 -10.5695
lclavicle -7.25564e-015 2.06736e-014
lhumerus -30.8977 -27.6337 103.605
lradius 41.9102
lwrist -11.9062
lhand 29.2489 29.0237
lfingers 7.12502
lthumb 53.0304 48.4967
rfemur 9.78958 -3.09784 20.1741
rtibia 1.11319e-014
rfoot -11.4514 -6.15097
rtoes -17.0882
lfemur -0.285272 -24.4834 -18.9489
ltibia 16.1571
lfoot -16.9473 14.8012
ltoes -13.9866
1911
root 0.386776 17.3627 0.566057 1.62891 6.62108 -1.87036
lowerback -4.31253 -1.64122 -3.97249
upperback -3.65881 -2.0618 0.500176
thorax -1.19298 -0.946618 2.6719
lowerneck 2.61396 -15.9425 -24.2832
upperneck 7.26246 -25.0454 27.1838
head 8.65171 -12.3735 10.1557
rclavicle -2.45499e-014 -1.63003e-014
rhumerus -39.7811 37.6866 -106.544
rradius 62.1899
rwrist 21.7026
rhand 29.1841 8.26534
rfingers 7.12502
rthumb 52.972 -11.2447
lclavicle -2.45499e-014 -1.63003e-014
lhumerus -30.8113 -29.233 104.8
lradius 37.7494
lwrist -11.9803
lhand 28.2226 27.7692
lfingers 7.12502
lthumb 52.1021 47.814
rfemur 9.88277 -3.19172 20.0345
rtibia -1.59028e-015
rfoot -11.4087 -6.06736
rtoes -17.0324
lfemur -0.269233 -24.248 -19.0598
ltibia 16.1732
lfoot -16.7946 14.5515
ltoes -14.5953
1912
root 0.386174 17.3666 0.549666 1.69591 6.962 -1.69634
lowerback -4.24157 -1.6783 -4.16645
upperback -3.51882 -2.10629 0.454127
thorax -1.08029 -0.970322 2.73098
lowerneck 2.47674 -15.9169 -24.3274
upperneck 7.1569 -24.986 27.3667
head 8.66511 -12.3346 10.2297
rclavicle 1.10822e-014 3.57812e-015
rhumerus -40.3932 38.6885 -107.323
rradius 59.7189
rwrist 22.1501
rhand 27.9829 8.13642
rfingers 7.12502
rthumb 51.8847 -12.0375
lclavicle 1.10822e-014 3.57812e-015
lhumerus -30.9598 -30.9216 106.065
lradius 33.9515
lwrist -11.9615
lhand 27.7512 26.6399
lfingers 7.12502
lthumb 51.6743 46.937
rfemur 9.81494 -3.53433 19.8312
rtibia -2.22639e-014
rfoot -11.3725 -6.00456
rtoes -17.1384
lfemur -0.477774 -24.1527 -19.1326
ltibia 16.1454
lfoot -16.4655 14.2913
ltoes -15.5389
1913
root 0.387053 17.3673 0.536022 1.57197 7.19367 -1.52533
lowerback -4.03214 -1.68207 -4.33731
upperback -3.32176 -2.11286 0.406246
thorax -0.989526 -0.976387 2.77977
lowerneck 2.34722 -15.9204 -24.295
upperneck 7.01226 -24.9425 27.4588
head 8.64159 -12.3036 10.254
rclavicle -1.64991e-014 -5.56597e-015
rhumerus -41.1822 39.9608 -108.358
rradius 57.4221
rwrist 22.1951
rhand 26.8555 8.04697
rfingers 7.12502
rthumb 50.859 -12.7128
lclavicle -1.64991e-014 -5.56597e-015
lhumerus -31.2323 -32.5099 107.35
lradius 30.4801
lwrist -11.7617
lhand 27.7575 25.8235
lfingers 7.12502
lthumb 51.68 46.1173
rfemur 9.96758 -3.76647 19.6148
rtibia -9.54166e-015
rfoot -11.3473 -5.99391
rtoes -17.1063
lfemur -0.333157 -24.1038 -19.3429
ltibia 15.9849
lfoot -16.2138 14.1011
ltoes -16.0768
1914
root 0.393502 17.3676 0.526146 1.62535 7.59855 -1.25437
lowerback -3.99476 -1.74736 -4.50051
upperback -3.18134 -2.1943 0.296483
thorax -0.857747 -1.02075 2.75353
lowerneck 1.95557 -15.9935 -24.1591
upperneck 7.23729 -24.9779 27.2689
head 8.74237 -12.2811 10.1229
rclavicle 3.62782e-015 2.10712e-014
rhumerus -42.1668 41.1787 -109.557
rradius 55.3596
rwrist 22.046
rhand 26.1748 8.15206
rfingers 7.12502
rthumb 50.2375 -12.9451
lclavicle 3.62782e-015 2.10712e-014
lhumerus -31.726 -34.0113 108.691
lradius 27.3104
lwrist -11.4895
lhand 27.3638 25.3852
lfingers 7.12502
lthumb 51.322 45.8851
rfemur 9.9869 -4.1722 19.2799
rtibia -7.95139e-015
rfoot -11.3998 -5.94931
rtoes -16.3023
lfemur -0.405263 -24.1713 -19.582
ltibia 15.8348
lfoot -16.0195 13.8163
ltoes -16.1392
1915
root 0.382937 17.3674 0.512907 1.43899 7.17215 -1.07724
lowerback -3.69356 -1.55122 -4.83859
upperback -3.00749 -1.9365 0.281745
thorax -0.85834 -0.889898 2.94298
lowerneck 1.52437 -16.0175 -24.0212
upperneck 7.4718 -24.9256 27.0324
head 8.82057 -12.2154 9.99368
rclavicle 4.27387e-015 -1.23246e-014
rhumerus -43.3258 42.3721 -110.876
rradius 53.5716
rwrist 21.6667
rhand 25.8783 8.38066
rfingers 7.12502
rthumb 49.9663 -12.8597
lclavicle 4.27387e-015 -1.23246e-014
lhumerus -32.5548 -35.4495 110.127
lradius 24.6782
lwrist -11.206
lhand 26.914 25.3554
lfingers 7.12502
lthumb 50.9124 46.0856
rfemur 10.1176 -3.74946 19.092
rtibia -6.36111e-015
rfoot -11.3026 -5.98387
rtoes -16.2475
lfemur -0.0266401 -23.8672 -19.9014
ltibia 15.6493
lfoot -16.0167 14.0951
ltoes -16.3128
1916
root 0.375665 17.3689 0.49468 1.34072 6.93055 -1.07064
lowerback -3.37605 -1.41393 -4.91072
upperback -2.87763 -1.76677 0.291052
thorax -0.914304 -0.805043 3.00492
lowerneck 1.3878 -15.9999 -23.9476
upperneck 7.31634 -24.8446 27.1015
head 8.77434 -12.166 10.0125
rclavicle -9.83984e-015 -8.74653e-015
rhumerus -44.5379 43.602 -112.285
rradius 52.0045
rwrist 20.8688
rhand 25.7166 8.6185
rfingers 7.12502
rthumb 49.8182 -12.6992
lclavicle -9.83984e-015 -8.74653e-015
lhumerus -33.2435 -36.222 111.177
lradius 22.4788
lwrist -11.7478
lhand 27.4624 26.1154
lfingers 7.12502
lthumb 51.4117 46.564
rfemur 10.118 -3.50965 19.1001
rtibia -1.90833e-014
rfoot -11.1323 -5.99959
rtoes -16.6706
lfemur 0.125342 -23.5872 -19.9329
ltibia 15.4777
lfoot -15.8662 14.357
ltoes -17.1357
1917
root 0.370222 17.3727 0.476032 1.41383 6.71622 -0.96093
lowerback -3.17141 -1.32678 -5.05564
upperback -2.7817 -1.65711 0.268261
thorax -0.936666 -0.749576 3.06953
lowerneck 1.39071 -15.9645 -23.9533
upperneck 6.87676 -24.7597 27.4646
head 8.67358 -12.13 10.1589
rclavicle -5.96354e-015 -1.15295e-014
rhumerus -45.8436 44.9523 -113.866
rradius 50.5782
rwrist 19.8902
rhand 25.3045 9.02064
rfingers 7.12502
rthumb 49.4405 -12.491
lclavicle -5.96354e-015 -1.15295e-014
lhumerus -33.3181 -35.8123 111.346
lradius 20.4422
lwrist -13.5499
lhand 29.2686 27.5814
lfingers 7.12502
lthumb 53.0482 47.0432
rfemur 9.94038 -3.30105 19.0024
rtibia -1.59028e-014
rfoot -10.9668 -6.00583
rtoes -17.067
lfemur 0.0621774 -23.3899 -20.0128
ltibia 15.3428
lfoot -15.76 14.3852
ltoes -16.6985
